<?xml version="1.0" encoding="UTF-8"?>
<svg id="Layer_2" data-name="Layer 2" xmlns="http://www.w3.org/2000/svg" viewBox="0 0 621.48 174.79">
  <defs>
    <style>
      .cls-1 {
        fill: #f17351;
      }
    </style>
  </defs>
  <path class="cls-1" d="M311.31,25.65l-1.44,19.45c-.46,6.23-.8,12.48-1.43,18.69-.54,5.3-1.55,10.78-4.41,15.37-2.44,3.93-6.48,7-11.06,7.88-2.01.38-4.36.24-6.2-.72-1.66-.87-2.23-2.29-1.11-3.79,2.66-3.58,8.25-3.53,12.09-2.4,4.27,1.25,7.87,4.21,9.62,8.34,2.24,5.27,1.96,11.47,2.18,17.08.56,14.71.85,29.44.88,44.16,0,3.22,5.01,3.22,5,0-.02-14.64-.31-29.28-.87-43.91-.25-6.57-.1-13.51-2.78-19.64-2.29-5.25-6.95-9.03-12.36-10.74s-11.89-1.29-16.29,2.55c-2.18,1.9-3.62,4.82-2.92,7.74s3.48,5.02,6.35,5.89c5.71,1.73,11.82-.32,16.36-3.88,4.83-3.79,7.68-9.32,9.12-15.21,1.77-7.23,1.89-14.86,2.44-22.25.61-8.21,1.21-16.42,1.82-24.63.1-1.35-1.22-2.5-2.5-2.5-1.44,0-2.4,1.15-2.5,2.5h0Z"/>
  <path class="cls-1" d="M315.16,110.27c-.16-4.57.16-9.17,1.2-13.62.82-3.51,2.55-6.02,5.92-7.44,2.94-1.25,6.26-1.59,9.41-1.79,4.69-.3,9.39-.48,14.09-.72,5.56-.28,11.11-.56,16.67-.84l-2.41-1.84.08.2v-1.33l-.05.21.64-1.1.55-.31,1.93.25-.2-.1c-1.22-.59-2.7-.33-3.42.9-.64,1.09-.32,2.83.9,3.42,1.15.55,2.37.59,3.39-.25.91-.75,1.49-2.05,1-3.22-.41-.99-1.22-1.89-2.41-1.84-10.31.52-20.64.88-30.93,1.57-3.9.26-7.83.77-11.45,2.33-3.88,1.67-6.67,4.67-8.01,8.69-.88,2.65-1.26,5.52-1.58,8.29s-.42,5.69-.32,8.54c.11,3.21,5.11,3.22,5,0h0Z"/>
  <path class="cls-1" d="M375.3,83.64v-.57c.01-.34-.06-.67-.22-.96-.1-.31-.27-.58-.52-.8-.23-.24-.49-.42-.8-.52-.3-.16-.62-.23-.96-.22l-.66.09c-.42.12-.79.33-1.1.64l-.39.51c-.23.39-.34.81-.34,1.26v.57c-.01.34.06.67.22.96.1.31.27.58.52.8.23.24.49.42.8.52.3.16.62.23.96.22l.66-.09c.42-.12.79-.33,1.1-.64l.39-.51c.23-.39.34-.81.34-1.26h0Z"/>
  <path class="cls-1" d="M312.62,162.41c3.22,0,3.22-5,0-5s-3.22,5,0,5h0Z"/>
  <path class="cls-1" d="M315.87,13.68l-.59-.57c-.23-.24-.49-.42-.8-.52-.3-.16-.62-.23-.96-.22-.34-.01-.67.06-.96.22-.31.1-.58.27-.8.52l-.39.51c-.23.39-.34.81-.34,1.26l.09.66c.12.42.33.79.64,1.1l.59.57c.23.24.49.42.8.52.3.16.62.23.96.22.34.01.67-.06.96-.22.31-.1.58-.27.8-.52l.39-.51c.23-.39.34-.81.34-1.26l-.09-.66c-.12-.42-.33-.79-.64-1.1h0Z"/>
  <path class="cls-1" d="M346.72,58.51c.11,1.3.06,2.6-.11,3.89.03-.2.02-.14-.03.17-.03.19-.06.37-.09.56-.05.28-.1.56-.15.84-.13.7-.27,1.4-.42,2.1-.55,2.73-1.1,5.53-.86,8.32.11,1.36,1.05,2.48,2.5,2.5,3.52.05,7.04-.04,10.57,0,1.31.02,2.56-1.16,2.5-2.5s-1.1-2.48-2.5-2.5c-3.52-.05-7.04.04-10.57,0l2.5,2.5c-.11-1.3-.06-2.6.11-3.89-.03.2-.02.14.03-.17.03-.19.06-.37.09-.56.05-.28.1-.56.15-.84.13-.7.27-1.4.42-2.1.55-2.73,1.1-5.53.86-8.32-.11-1.3-1.07-2.56-2.5-2.5-1.26.06-2.62,1.1-2.5,2.5h0Z"/>
  <path class="cls-1" d="M351.52,67.33c1.15.38,2.41.51,3.61.58s2.44.02,3.66-.2c.58-.1,1.21-.66,1.49-1.15.31-.54.45-1.33.25-1.93s-.57-1.19-1.15-1.49c-.63-.33-1.23-.38-1.93-.25-.11.02-.23.04-.34.05l.66-.09c-1.27.16-2.58.11-3.85-.06l.66.09c-.59-.08-1.18-.19-1.75-.38-.6-.2-1.39-.06-1.93.25s-1.01.9-1.15,1.49c-.31,1.38.42,2.63,1.75,3.08h0Z"/>
  <path class="cls-1" d="M349.91,59.78c4.21.16,8.42-.07,12.63.09,1.31.05,2.56-1.19,2.5-2.5-.06-1.4-1.1-2.45-2.5-2.5-4.21-.16-8.42.07-12.63-.09-1.31-.05-2.56,1.19-2.5,2.5.06,1.4,1.1,2.45,2.5,2.5h0Z"/>
  <path class="cls-1" d="M325.66,57.59c.11,1.3.06,2.6-.11,3.89.03-.2.02-.14-.03.17-.03.19-.06.37-.09.56-.05.28-.1.56-.15.84-.13.7-.27,1.4-.42,2.1-.55,2.73-1.1,5.53-.86,8.32.11,1.36,1.05,2.48,2.5,2.5,3.52.05,7.04-.04,10.57,0,1.31.02,2.56-1.16,2.5-2.5s-1.1-2.48-2.5-2.5c-3.52-.05-7.04.04-10.57,0l2.5,2.5c-.11-1.3-.06-2.6.11-3.89-.03.2-.02.14.03-.17.03-.19.06-.37.09-.56.05-.28.1-.56.15-.84.13-.7.27-1.4.42-2.1.55-2.73,1.1-5.53.86-8.32-.11-1.3-1.07-2.56-2.5-2.5-1.26.06-2.62,1.1-2.5,2.5h0Z"/>
  <path class="cls-1" d="M330.47,66.41c1.15.38,2.41.51,3.61.58s2.44.02,3.66-.2c.58-.1,1.21-.66,1.49-1.15.31-.54.45-1.33.25-1.93s-.57-1.19-1.15-1.49c-.63-.33-1.23-.38-1.93-.25-.11.02-.23.04-.34.05l.66-.09c-1.27.16-2.58.11-3.85-.06l.66.09c-.59-.08-1.18-.19-1.75-.38-.6-.2-1.39-.06-1.93.25s-1.01.9-1.15,1.49c-.31,1.38.42,2.63,1.75,3.08h0Z"/>
  <path class="cls-1" d="M328.85,58.86c4.21.16,8.42-.07,12.63.09,1.31.05,2.56-1.19,2.5-2.5-.06-1.4-1.1-2.45-2.5-2.5-4.21-.16-8.42.07-12.63-.09-1.31-.05-2.56,1.19-2.5,2.5.06,1.4,1.1,2.45,2.5,2.5h0Z"/>
</svg>